<svg width="40" height="40" viewBox="0 0 40 40" fill="none" xmlns="http://www.w3.org/2000/svg">
<path d="M25.8451 0.27449C23.954 0.867287 22.2646 1.91815 20.9534 3.34625C19.6423 4.74741 18.5328 6.68747 18.5328 7.52277C18.5328 7.79222 18.1294 8.57364 17.6503 9.24727C16.1122 11.4029 16.2131 12.9388 18.1042 16.0105C19.3901 18.0584 19.844 18.2739 20.8273 17.25C21.7603 16.3069 23.3236 13.0196 23.3236 12.0496C23.3236 11.1334 22.0881 8.89698 20.9534 7.73833C20.4491 7.22637 20.0457 6.66052 20.0457 6.4719C20.0457 6.31023 20.6508 5.52882 21.3821 4.74741C23.0462 2.94207 25.3912 1.70259 27.3327 1.62175L28.7448 1.54092L27.4588 1.78342C25.5425 2.16066 23.9792 2.96902 22.6932 4.23545C21.3821 5.52882 20.9534 6.2294 21.2056 6.66052C21.3064 6.84914 21.7855 6.52579 22.4159 5.85216C24.3574 3.80432 27.5345 2.94207 30.4089 3.66959C32.7287 4.26239 34.1407 5.23242 35.2754 7.03775C36.41 8.7892 36.4352 8.7892 31.6444 8.7892H27.3579V9.59756C27.3579 10.1365 27.5597 10.5137 27.9631 10.8101C28.2909 11.0526 28.6439 11.4298 28.7195 11.6723C28.8204 11.9149 27.9127 13.8819 26.5511 16.4956L24.2061 20.9415L23.1975 20.8068C22.6428 20.726 20.4995 20.1062 18.4067 19.4326C16.3391 18.759 14.4985 18.22 14.3724 18.22C14.2211 18.22 13.389 16.8728 12.5065 15.2291C10.8423 12.1035 10.6658 11.1604 11.7248 10.864C12.1031 10.7562 12.2291 10.5137 12.2291 9.75923V8.7892H6.68189H1.13466V9.70534C1.13466 10.5406 1.23552 10.6754 2.09282 10.9448C3.63092 11.4837 4.463 12.3729 5.77417 14.798C7.13576 17.3039 6.90883 17.1961 9.15294 16.7111C9.70766 16.6033 9.70766 16.5764 8.79993 14.6363C8.29564 13.5855 7.99306 12.804 8.14435 12.9657C8.72429 13.6124 10.7162 17.1961 10.5902 17.3847C10.5397 17.5195 9.65723 17.6542 8.64864 17.735C5.29509 17.9775 2.19368 20.3487 0.680797 23.8247C0.0756441 25.2258 0 25.6569 0 28.594C0 31.7196 0.0252147 31.8813 0.80687 33.4711C1.79024 35.492 3.47963 37.1356 5.39595 37.944C7.41312 38.7793 11.2962 38.7793 14.095 37.944C16.6921 37.1356 16.8182 37.0817 16.4148 36.489C16.1374 36.0848 15.9609 36.0578 15.1036 36.3273C14.5741 36.489 13.2125 36.6237 12.0778 36.6237C10.338 36.6506 9.83373 36.5428 8.62343 35.8962C7.36269 35.2495 6.1776 34.0369 6.1776 33.4172C6.1776 33.2825 6.3541 33.4441 6.55582 33.7944C7.84177 35.7075 11.0945 36.462 14.6245 35.5998C16.2635 35.2225 16.6165 35.1956 16.793 35.492C16.8938 35.7075 17.4738 36.7854 18.0789 37.8901C19.0119 39.6416 19.264 39.911 19.9196 39.9918C20.6508 40.0457 20.7517 39.911 22.1889 37.1087L23.7018 34.1717L25.5173 33.5789C28.2152 32.7166 29.9046 32.6088 31.2914 33.1747C33.2834 33.983 34.0398 36.1656 32.7539 37.5129C32.2244 38.1057 31.947 38.1865 30.9889 38.1057C29.7029 37.9979 29.6273 38.1596 30.535 38.941C31.4427 39.6954 33.4347 39.7224 34.4181 38.9679C36.6117 37.2973 36.2587 32.2047 33.8129 30.2107C32.653 29.2676 30.9132 28.7287 29.0978 28.7287C27.837 28.7287 27.5849 28.8095 27.131 29.4293C26.8284 29.8335 26.6015 30.2376 26.6015 30.3454C26.6015 30.4532 27.4084 30.4802 28.3665 30.3993C30.4089 30.2646 31.947 30.7496 32.9304 31.8544L33.5355 32.528L32.2748 31.7735C31.1906 31.1268 30.7619 31.0191 29.123 31.046C27.7866 31.073 26.8789 31.2616 26.0468 31.6388C25.366 31.9621 24.8365 32.1508 24.8365 32.0969C24.8365 32.016 25.4668 30.7766 26.2485 29.3215L27.6605 26.6809L29.6021 26.4114C34.292 25.7378 37.7716 22.4235 39.3349 17.0883C40.2174 14.1244 40.2174 10.0017 39.3601 7.38804C38.2507 4.04683 36.1074 1.72953 33.0313 0.597832C31.3923 -0.0219078 27.3579 -0.210526 25.8451 0.27449ZM36.1327 13.4238C35.4014 16.3878 34.5694 18.0045 32.9304 19.6481C31.594 20.9685 30.4341 22.666 30.7115 22.9624C30.7619 23.0163 31.4932 22.693 32.3505 22.2349C33.9642 21.3726 35.8553 19.4056 36.6874 17.7081C36.9647 17.1692 37.1665 16.8458 37.1917 16.9806C37.2169 17.5464 35.5527 20.4026 34.5946 21.4535C33.4599 22.693 31.4932 23.7977 29.9803 24.0672C29.1986 24.2019 29.0725 24.175 29.1986 23.8247C29.2743 23.5822 30.535 21.1301 32.0227 18.3278C34.4181 13.828 35.9309 11.4837 36.4605 11.4837C36.5361 11.4837 36.41 12.3729 36.1327 13.4238ZM17.8772 12.9927C17.9781 13.2621 17.9024 13.3699 17.7259 13.316C17.3477 13.1813 17.146 12.5615 17.4738 12.5615C17.5999 12.5615 17.8016 12.7502 17.8772 12.9927ZM22.5167 12.8849C22.4663 13.0466 22.2646 13.2621 22.1133 13.316C21.9368 13.3699 21.8611 13.2621 21.962 12.9927C22.1385 12.5076 22.668 12.3999 22.5167 12.8849ZM31.0897 14.3669C29.829 17.4386 24.2313 27.8665 23.3992 28.7287C22.5167 29.6449 27.6857 19.4056 30.8124 14.0974C31.6192 12.7232 31.7201 12.831 31.0897 14.3669ZM13.6916 19.4595C14.7506 19.702 17.1712 20.4835 19.0623 21.211C20.9786 21.9385 22.6428 22.5313 22.7941 22.5313C22.9454 22.5313 23.0714 22.666 23.0714 22.8277C23.0714 23.0702 20.2222 28.594 19.9196 28.9443C19.8944 28.9712 19.264 27.8934 18.5328 26.5192C17.7764 25.145 17.0704 23.9324 16.9443 23.8247C16.5913 23.5822 14.4732 23.2588 14.3219 23.4474C14.2463 23.5283 14.7758 24.8216 15.4818 26.3575C16.9443 29.4562 16.3643 29.0251 14.4228 25.5492C12.7082 22.4774 12.7082 22.5313 14.1454 22.5313C15.2297 22.5313 17.4486 23.2319 20.2222 24.4444C20.9786 24.7678 21.0795 24.7408 21.4325 24.2827C21.9872 23.4744 21.9116 23.3666 20.6256 22.7738C12.0274 18.8398 6.48018 19.0554 3.47963 23.4205C3.15184 23.8786 2.89969 24.1211 2.89969 23.9594C2.89969 23.3935 4.53865 21.3457 5.54723 20.6182C7.69048 19.0823 10.2876 18.7051 13.6916 19.4595ZM13.0612 28.4054C14.5489 31.2077 15.7592 33.5519 15.7592 33.6597C15.7592 33.983 13.8429 34.3872 12.2796 34.3872C9.73287 34.3872 8.0687 33.3902 7.16097 31.2885C6.07674 28.7557 6.93404 25.63 9.20336 23.9863C9.68244 23.6361 10.1363 23.3397 10.212 23.3397C10.2876 23.3397 11.5483 25.63 13.0612 28.4054Z" fill="#FF0101"/>
</svg>
