<svg width="68" height="63" viewBox="0 0 68 63" fill="none" xmlns="http://www.w3.org/2000/svg">
<path d="M43.4999 0.43222C40.3169 1.36588 37.4735 3.021 35.2667 5.27026C33.0599 7.47708 31.1926 10.5327 31.1926 11.8483C31.1926 12.2727 30.5136 13.5034 29.7072 14.5644C27.1185 17.9595 27.2882 20.3785 30.4711 25.2165C32.6355 28.4419 33.3994 28.7814 35.0545 27.1687C36.6248 25.6834 39.256 20.5058 39.256 18.978C39.256 17.5351 37.1765 14.0127 35.2667 12.1878C34.4179 11.3815 33.7389 10.4902 33.7389 10.1932C33.7389 9.93853 34.7575 8.70781 35.9882 7.47708C38.7891 4.63367 42.736 2.68148 46.0038 2.55416L48.3803 2.42685L46.216 2.8088C42.9906 3.40294 40.3594 4.67611 38.195 6.67074C35.9882 8.70781 35.2667 9.81122 35.6911 10.4902C35.8609 10.7873 36.6672 10.278 37.7282 9.21707C40.996 5.99172 46.3433 4.63367 51.1813 5.77952C55.0857 6.71318 57.4623 8.24098 59.372 11.0844C61.2818 13.8429 61.3242 13.8429 53.2608 13.8429H46.0462V15.1161C46.0462 15.9649 46.3857 16.559 47.0647 17.0258C47.6164 17.4078 48.2106 18.0019 48.3379 18.3839C48.5077 18.7658 46.9799 21.8639 44.6882 25.9804L40.7413 32.9829L39.0438 32.7707C38.1101 32.6433 34.5028 31.6672 30.9804 30.6063C27.5004 29.5453 24.4024 28.6965 24.1902 28.6965C23.9355 28.6965 22.5351 26.5746 21.0497 23.9858C18.2487 19.0629 17.9517 17.5775 19.7341 17.1107C20.3707 16.941 20.5829 16.559 20.5829 15.3707V13.8429H11.2463H1.90975V15.2858C1.90975 16.6014 2.07951 16.8136 3.52243 17.238C6.1112 18.0868 7.51168 19.4873 9.71851 23.3068C12.0102 27.2536 11.6283 27.0838 15.4053 26.3199C16.339 26.1502 16.339 26.1077 14.8112 23.0522C13.9624 21.397 13.4531 20.1663 13.7078 20.4209C14.6839 21.4395 18.0365 27.0838 17.8243 27.3809C17.7395 27.5931 16.2541 27.8053 14.5565 27.9326C8.91217 28.3146 3.69218 32.0492 1.14585 37.5238C0.127317 39.7306 0 40.4097 0 45.0355C0 49.9584 0.0424389 50.213 1.35804 52.7169C3.01316 55.8999 5.85657 58.4886 9.08192 59.7618C12.477 61.0774 19.0126 61.0774 23.7233 59.7618C28.0945 58.4886 28.3067 58.4037 27.6277 57.4701C27.1609 56.8335 26.8638 56.7911 25.4209 57.2155C24.5297 57.4701 22.238 57.6823 20.3282 57.6823C17.3999 57.7247 16.5512 57.555 14.5141 56.5364C12.3922 55.5179 10.3975 53.6082 10.3975 52.6321C10.3975 52.4199 10.6946 52.6745 11.0341 53.2262C13.1985 56.2394 18.6731 57.4277 24.6146 56.0696C27.3731 55.4755 27.9672 55.433 28.2643 55.8999C28.4341 56.2394 29.4102 57.9369 30.4287 59.6769C31.9989 62.4354 32.4233 62.8598 33.5267 62.9871C34.7575 63.072 34.9272 62.8598 37.3462 58.4462L39.8926 53.8203L42.9482 52.8867C47.4891 51.5286 50.3325 51.3589 52.6667 52.2501C56.0193 53.5233 57.2925 56.9608 55.1281 59.0828C54.2369 60.0164 53.7701 60.1437 52.1574 60.0164C49.993 59.8467 49.8657 60.1013 51.3935 61.332C52.9213 62.5203 56.274 62.5628 57.9291 61.3745C61.6213 58.7433 61.0271 50.7223 56.9106 47.5818C54.9584 46.0965 52.0301 45.2477 48.9745 45.2477C46.8525 45.2477 46.4281 45.375 45.6642 46.3511C45.155 46.9877 44.773 47.6243 44.773 47.794C44.773 47.9638 46.1311 48.0062 47.7438 47.8789C51.1813 47.6667 53.7701 48.4306 55.4252 50.1706L56.4437 51.2316L54.3218 50.0433C52.4969 49.0248 51.7754 48.855 49.0169 48.8974C46.7677 48.9399 45.2399 49.2369 43.8394 49.8311C42.6935 50.3404 41.8023 50.6374 41.8023 50.5526C41.8023 50.4252 42.8633 48.473 44.1789 46.1813L46.5555 42.0223L49.8233 41.5979C57.7169 40.537 63.5735 35.317 66.2047 26.9141C67.69 22.2458 67.69 15.7527 66.2471 11.6361C64.3798 6.37367 60.7725 2.72392 55.5949 0.94149C52.8364 -0.0346069 46.0462 -0.331676 43.4999 0.43222ZM60.8149 21.1424C59.5842 25.8107 58.1837 28.357 55.4252 30.9458C53.1759 33.0253 51.2237 35.6989 51.6906 36.1658C51.7754 36.2506 53.0062 35.7414 54.4491 35.0199C57.1652 33.6619 60.3481 30.5638 61.7486 27.8902C62.2154 27.0414 62.5549 26.5321 62.5974 26.7443C62.6398 27.6356 59.8388 32.1341 58.2262 33.7892C56.3164 35.7414 53.0062 37.4814 50.4598 37.9058C49.1442 38.118 48.932 38.0755 49.1442 37.5238C49.2716 37.1419 51.3935 33.2799 53.8974 28.8663C57.9291 21.779 60.4754 18.0868 61.3666 18.0868C61.494 18.0868 61.2818 19.4873 60.8149 21.1424ZM30.0892 20.4634C30.2589 20.8878 30.1316 21.0575 29.8345 20.9726C29.198 20.7605 28.8584 19.7844 29.4102 19.7844C29.6223 19.7844 29.9619 20.0814 30.0892 20.4634ZM37.8979 20.2936C37.8131 20.5483 37.4735 20.8878 37.2189 20.9726C36.9218 21.0575 36.7945 20.8878 36.9643 20.4634C37.2613 19.6995 38.1526 19.5297 37.8979 20.2936ZM52.3272 22.6278C50.2052 27.4658 40.7838 43.8896 39.3833 45.2477C37.8979 46.6906 46.5979 30.5638 51.8603 22.2034C53.2184 20.039 53.3881 20.2087 52.3272 22.6278ZM23.0443 30.6487C24.8268 31.0307 28.9009 32.2614 32.0838 33.4072C35.3092 34.5531 38.1101 35.4867 38.3648 35.4867C38.6194 35.4867 38.8316 35.6989 38.8316 35.9536C38.8316 36.3355 34.036 45.0355 33.5267 45.5872C33.4843 45.6296 32.4233 43.9321 31.1926 41.7677C29.9194 39.6033 28.7311 37.6936 28.5189 37.5238C27.9248 37.1419 24.3599 36.6326 24.1053 36.9297C23.978 37.057 24.8692 39.0941 26.0575 41.5131C28.5189 46.3935 27.5428 45.7145 24.275 40.2399C21.3892 35.4019 21.3892 35.4867 23.8082 35.4867C25.6331 35.4867 29.3677 36.5902 34.036 38.4999C35.3092 39.0092 35.4789 38.9667 36.0731 38.2453C37.0067 36.9721 36.8794 36.8024 34.715 35.8687C20.2434 29.6726 10.9068 30.0121 5.85657 36.8872C5.30486 37.6087 4.88047 37.9906 4.88047 37.736C4.88047 36.8448 7.639 33.6194 9.33656 32.4736C12.9439 30.0546 17.3151 29.4604 23.0443 30.6487ZM21.9833 44.7384C24.4872 49.1521 26.5243 52.8443 26.5243 53.014C26.5243 53.5233 23.299 54.1599 20.6677 54.1599C16.3814 54.1599 13.5804 52.5896 12.0526 49.2794C10.2278 45.2901 11.6707 40.3672 15.4902 37.7784C16.2965 37.2267 17.0604 36.7599 17.1877 36.7599C17.3151 36.7599 19.437 40.3672 21.9833 44.7384Z" fill="white"/>
</svg>
